<?xml version="1.0" encoding="utf-8" standalone="no"?>
<!DOCTYPE svg PUBLIC "-//W3C//DTD SVG 1.1//EN"
  "http://www.w3.org/Graphics/SVG/1.1/DTD/svg11.dtd">
<!-- Created with matplotlib (http://matplotlib.org/) -->
<svg height="345pt" version="1.1" viewBox="0 0 460 345" width="460pt" xmlns="http://www.w3.org/2000/svg" xmlns:xlink="http://www.w3.org/1999/xlink">
 <defs>
  <style type="text/css">
*{stroke-linecap:butt;stroke-linejoin:round;}
  </style>
 </defs>
 <g id="figure_1">
  <g id="patch_1">
   <path d="M 0 345.6 
L 460.8 345.6 
L 460.8 0 
L 0 0 
z
" style="fill:#ffffff;"/>
  </g>
  <g id="axes_1">
   <g id="patch_2">
    <path d="M 57.6 307.584 
L 414.72 307.584 
L 414.72 41.472 
L 57.6 41.472 
z
" style="fill:#ffffff;"/>
   </g>
   <g id="matplotlib.axis_1">
    <g id="xtick_1">
     <g id="line2d_1">
      <defs>
       <path d="M 0 0 
L 0 3.5 
" id="m6abfa30e7b" style="stroke:#000000;stroke-width:0.8;"/>
      </defs>
      <g>
       <use style="stroke:#000000;stroke-width:0.8;" x="72.746926" xlink:href="#m6abfa30e7b" y="307.584"/>
      </g>
     </g>
     <g id="text_1">
      <!-- 0 -->
      <defs>
       <path d="M 31.78125 66.40625 
Q 24.171875 66.40625 20.328125 58.90625 
Q 16.5 51.421875 16.5 36.375 
Q 16.5 21.390625 20.328125 13.890625 
Q 24.171875 6.390625 31.78125 6.390625 
Q 39.453125 6.390625 43.28125 13.890625 
Q 47.125 21.390625 47.125 36.375 
Q 47.125 51.421875 43.28125 58.90625 
Q 39.453125 66.40625 31.78125 66.40625 
z
M 31.78125 74.21875 
Q 44.046875 74.21875 50.515625 64.515625 
Q 56.984375 54.828125 56.984375 36.375 
Q 56.984375 17.96875 50.515625 8.265625 
Q 44.046875 -1.421875 31.78125 -1.421875 
Q 19.53125 -1.421875 13.0625 8.265625 
Q 6.59375 17.96875 6.59375 36.375 
Q 6.59375 54.828125 13.0625 64.515625 
Q 19.53125 74.21875 31.78125 74.21875 
z
" id="DejaVuSans-30"/>
      </defs>
      <g transform="translate(69.565676 322.182437)scale(0.1 -0.1)">
       <use xlink:href="#DejaVuSans-30"/>
      </g>
     </g>
    </g>
    <g id="xtick_2">
     <g id="line2d_2">
      <g>
       <use style="stroke:#000000;stroke-width:0.8;" x="127.036984" xlink:href="#m6abfa30e7b" y="307.584"/>
      </g>
     </g>
     <g id="text_2">
      <!-- 50 -->
      <defs>
       <path d="M 10.796875 72.90625 
L 49.515625 72.90625 
L 49.515625 64.59375 
L 19.828125 64.59375 
L 19.828125 46.734375 
Q 21.96875 47.46875 24.109375 47.828125 
Q 26.265625 48.1875 28.421875 48.1875 
Q 40.625 48.1875 47.75 41.5 
Q 54.890625 34.8125 54.890625 23.390625 
Q 54.890625 11.625 47.5625 5.09375 
Q 40.234375 -1.421875 26.90625 -1.421875 
Q 22.3125 -1.421875 17.546875 -0.640625 
Q 12.796875 0.140625 7.71875 1.703125 
L 7.71875 11.625 
Q 12.109375 9.234375 16.796875 8.0625 
Q 21.484375 6.890625 26.703125 6.890625 
Q 35.15625 6.890625 40.078125 11.328125 
Q 45.015625 15.765625 45.015625 23.390625 
Q 45.015625 31 40.078125 35.4375 
Q 35.15625 39.890625 26.703125 39.890625 
Q 22.75 39.890625 18.8125 39.015625 
Q 14.890625 38.140625 10.796875 36.28125 
z
" id="DejaVuSans-35"/>
      </defs>
      <g transform="translate(120.674484 322.182437)scale(0.1 -0.1)">
       <use xlink:href="#DejaVuSans-35"/>
       <use x="63.623047" xlink:href="#DejaVuSans-30"/>
      </g>
     </g>
    </g>
    <g id="xtick_3">
     <g id="line2d_3">
      <g>
       <use style="stroke:#000000;stroke-width:0.8;" x="181.327042" xlink:href="#m6abfa30e7b" y="307.584"/>
      </g>
     </g>
     <g id="text_3">
      <!-- 100 -->
      <defs>
       <path d="M 12.40625 8.296875 
L 28.515625 8.296875 
L 28.515625 63.921875 
L 10.984375 60.40625 
L 10.984375 69.390625 
L 28.421875 72.90625 
L 38.28125 72.90625 
L 38.28125 8.296875 
L 54.390625 8.296875 
L 54.390625 0 
L 12.40625 0 
z
" id="DejaVuSans-31"/>
      </defs>
      <g transform="translate(171.783292 322.182437)scale(0.1 -0.1)">
       <use xlink:href="#DejaVuSans-31"/>
       <use x="63.623047" xlink:href="#DejaVuSans-30"/>
       <use x="127.246094" xlink:href="#DejaVuSans-30"/>
      </g>
     </g>
    </g>
    <g id="xtick_4">
     <g id="line2d_4">
      <g>
       <use style="stroke:#000000;stroke-width:0.8;" x="235.617099" xlink:href="#m6abfa30e7b" y="307.584"/>
      </g>
     </g>
     <g id="text_4">
      <!-- 150 -->
      <g transform="translate(226.073349 322.182437)scale(0.1 -0.1)">
       <use xlink:href="#DejaVuSans-31"/>
       <use x="63.623047" xlink:href="#DejaVuSans-35"/>
       <use x="127.246094" xlink:href="#DejaVuSans-30"/>
      </g>
     </g>
    </g>
    <g id="xtick_5">
     <g id="line2d_5">
      <g>
       <use style="stroke:#000000;stroke-width:0.8;" x="289.907157" xlink:href="#m6abfa30e7b" y="307.584"/>
      </g>
     </g>
     <g id="text_5">
      <!-- 200 -->
      <defs>
       <path d="M 19.1875 8.296875 
L 53.609375 8.296875 
L 53.609375 0 
L 7.328125 0 
L 7.328125 8.296875 
Q 12.9375 14.109375 22.625 23.890625 
Q 32.328125 33.6875 34.8125 36.53125 
Q 39.546875 41.84375 41.421875 45.53125 
Q 43.3125 49.21875 43.3125 52.78125 
Q 43.3125 58.59375 39.234375 62.25 
Q 35.15625 65.921875 28.609375 65.921875 
Q 23.96875 65.921875 18.8125 64.3125 
Q 13.671875 62.703125 7.8125 59.421875 
L 7.8125 69.390625 
Q 13.765625 71.78125 18.9375 73 
Q 24.125 74.21875 28.421875 74.21875 
Q 39.75 74.21875 46.484375 68.546875 
Q 53.21875 62.890625 53.21875 53.421875 
Q 53.21875 48.921875 51.53125 44.890625 
Q 49.859375 40.875 45.40625 35.40625 
Q 44.1875 33.984375 37.640625 27.21875 
Q 31.109375 20.453125 19.1875 8.296875 
z
" id="DejaVuSans-32"/>
      </defs>
      <g transform="translate(280.363407 322.182437)scale(0.1 -0.1)">
       <use xlink:href="#DejaVuSans-32"/>
       <use x="63.623047" xlink:href="#DejaVuSans-30"/>
       <use x="127.246094" xlink:href="#DejaVuSans-30"/>
      </g>
     </g>
    </g>
    <g id="xtick_6">
     <g id="line2d_6">
      <g>
       <use style="stroke:#000000;stroke-width:0.8;" x="344.197215" xlink:href="#m6abfa30e7b" y="307.584"/>
      </g>
     </g>
     <g id="text_6">
      <!-- 250 -->
      <g transform="translate(334.653465 322.182437)scale(0.1 -0.1)">
       <use xlink:href="#DejaVuSans-32"/>
       <use x="63.623047" xlink:href="#DejaVuSans-35"/>
       <use x="127.246094" xlink:href="#DejaVuSans-30"/>
      </g>
     </g>
    </g>
    <g id="xtick_7">
     <g id="line2d_7">
      <g>
       <use style="stroke:#000000;stroke-width:0.8;" x="398.487273" xlink:href="#m6abfa30e7b" y="307.584"/>
      </g>
     </g>
     <g id="text_7">
      <!-- 300 -->
      <defs>
       <path d="M 40.578125 39.3125 
Q 47.65625 37.796875 51.625 33 
Q 55.609375 28.21875 55.609375 21.1875 
Q 55.609375 10.40625 48.1875 4.484375 
Q 40.765625 -1.421875 27.09375 -1.421875 
Q 22.515625 -1.421875 17.65625 -0.515625 
Q 12.796875 0.390625 7.625 2.203125 
L 7.625 11.71875 
Q 11.71875 9.328125 16.59375 8.109375 
Q 21.484375 6.890625 26.8125 6.890625 
Q 36.078125 6.890625 40.9375 10.546875 
Q 45.796875 14.203125 45.796875 21.1875 
Q 45.796875 27.640625 41.28125 31.265625 
Q 36.765625 34.90625 28.71875 34.90625 
L 20.21875 34.90625 
L 20.21875 43.015625 
L 29.109375 43.015625 
Q 36.375 43.015625 40.234375 45.921875 
Q 44.09375 48.828125 44.09375 54.296875 
Q 44.09375 59.90625 40.109375 62.90625 
Q 36.140625 65.921875 28.71875 65.921875 
Q 24.65625 65.921875 20.015625 65.03125 
Q 15.375 64.15625 9.8125 62.3125 
L 9.8125 71.09375 
Q 15.4375 72.65625 20.34375 73.4375 
Q 25.25 74.21875 29.59375 74.21875 
Q 40.828125 74.21875 47.359375 69.109375 
Q 53.90625 64.015625 53.90625 55.328125 
Q 53.90625 49.265625 50.4375 45.09375 
Q 46.96875 40.921875 40.578125 39.3125 
z
" id="DejaVuSans-33"/>
      </defs>
      <g transform="translate(388.943523 322.182437)scale(0.1 -0.1)">
       <use xlink:href="#DejaVuSans-33"/>
       <use x="63.623047" xlink:href="#DejaVuSans-30"/>
       <use x="127.246094" xlink:href="#DejaVuSans-30"/>
      </g>
     </g>
    </g>
    <g id="text_8">
     <!-- $iter-num$ -->
     <defs>
      <path d="M 18.3125 75.984375 
L 27.296875 75.984375 
L 25.09375 64.59375 
L 16.109375 64.59375 
z
M 14.203125 54.6875 
L 23.1875 54.6875 
L 12.5 0 
L 3.515625 0 
z
" id="DejaVuSans-Oblique-69"/>
      <path d="M 42.28125 54.6875 
L 40.921875 47.703125 
L 23 47.703125 
L 17.1875 18.015625 
Q 16.890625 16.359375 16.75 15.234375 
Q 16.609375 14.109375 16.609375 13.484375 
Q 16.609375 10.359375 18.484375 8.9375 
Q 20.359375 7.515625 24.515625 7.515625 
L 33.59375 7.515625 
L 32.078125 0 
L 23.484375 0 
Q 15.484375 0 11.546875 3.125 
Q 7.625 6.25 7.625 12.59375 
Q 7.625 13.71875 7.765625 15.0625 
Q 7.90625 16.40625 8.203125 18.015625 
L 14.015625 47.703125 
L 6.390625 47.703125 
L 7.8125 54.6875 
L 15.28125 54.6875 
L 18.3125 70.21875 
L 27.296875 70.21875 
L 24.3125 54.6875 
z
" id="DejaVuSans-Oblique-74"/>
      <path d="M 48.09375 32.234375 
Q 48.25 33.015625 48.3125 33.84375 
Q 48.390625 34.671875 48.390625 35.5 
Q 48.390625 41.453125 44.890625 44.921875 
Q 41.40625 48.390625 35.40625 48.390625 
Q 28.71875 48.390625 23.578125 44.15625 
Q 18.453125 39.9375 15.828125 32.171875 
z
M 55.90625 25.203125 
L 14.109375 25.203125 
Q 13.8125 23.34375 13.71875 22.265625 
Q 13.625 21.1875 13.625 20.40625 
Q 13.625 13.625 17.796875 9.90625 
Q 21.96875 6.203125 29.59375 6.203125 
Q 35.453125 6.203125 40.671875 7.515625 
Q 45.90625 8.84375 50.390625 11.375 
L 48.6875 2.484375 
Q 43.84375 0.53125 38.6875 -0.4375 
Q 33.546875 -1.421875 28.21875 -1.421875 
Q 16.84375 -1.421875 10.71875 4.015625 
Q 4.59375 9.46875 4.59375 19.484375 
Q 4.59375 28.03125 7.640625 35.375 
Q 10.6875 42.71875 16.609375 48.484375 
Q 20.40625 52.09375 25.65625 54.046875 
Q 30.90625 56 36.8125 56 
Q 46.09375 56 51.578125 50.4375 
Q 57.078125 44.875 57.078125 35.5 
Q 57.078125 33.25 56.78125 30.6875 
Q 56.5 28.125 55.90625 25.203125 
z
" id="DejaVuSans-Oblique-65"/>
      <path d="M 44.578125 46.390625 
Q 43.21875 47.125 41.453125 47.515625 
Q 39.703125 47.90625 37.703125 47.90625 
Q 30.515625 47.90625 25.140625 42.453125 
Q 19.78125 37.015625 18.015625 27.875 
L 12.5 0 
L 3.515625 0 
L 14.203125 54.6875 
L 23.1875 54.6875 
L 21.484375 46.1875 
Q 25.046875 50.921875 30 53.453125 
Q 34.96875 56 40.578125 56 
Q 42.046875 56 43.453125 55.828125 
Q 44.875 55.671875 46.296875 55.28125 
z
" id="DejaVuSans-Oblique-72"/>
      <path d="M 10.59375 35.5 
L 73.1875 35.5 
L 73.1875 27.203125 
L 10.59375 27.203125 
z
" id="DejaVuSans-2212"/>
      <path d="M 55.71875 33.015625 
L 49.3125 0 
L 40.28125 0 
L 46.6875 32.671875 
Q 47.125 34.96875 47.359375 36.71875 
Q 47.609375 38.484375 47.609375 39.5 
Q 47.609375 43.609375 45.015625 45.890625 
Q 42.4375 48.1875 37.796875 48.1875 
Q 30.5625 48.1875 25.34375 43.375 
Q 20.125 38.578125 18.5 30.328125 
L 12.5 0 
L 3.515625 0 
L 14.109375 54.6875 
L 23.09375 54.6875 
L 21.296875 46.09375 
Q 25.046875 50.828125 30.3125 53.40625 
Q 35.59375 56 41.40625 56 
Q 48.640625 56 52.609375 52.09375 
Q 56.59375 48.1875 56.59375 41.109375 
Q 56.59375 39.359375 56.375 37.359375 
Q 56.15625 35.359375 55.71875 33.015625 
z
" id="DejaVuSans-Oblique-6e"/>
      <path d="M 6.6875 21.6875 
L 13.09375 54.6875 
L 22.125 54.6875 
L 15.71875 22.015625 
Q 15.234375 19.625 15.015625 17.921875 
Q 14.796875 16.21875 14.796875 15.09375 
Q 14.796875 10.9375 17.328125 8.65625 
Q 19.875 6.390625 24.515625 6.390625 
Q 31.734375 6.390625 37 11.265625 
Q 42.28125 16.15625 43.890625 24.421875 
L 49.90625 54.6875 
L 58.890625 54.6875 
L 48.296875 0 
L 39.3125 0 
L 41.109375 8.59375 
Q 37.3125 3.8125 32.0625 1.1875 
Q 26.8125 -1.421875 20.90625 -1.421875 
Q 13.71875 -1.421875 9.71875 2.515625 
Q 5.71875 6.453125 5.71875 13.484375 
Q 5.71875 14.9375 5.953125 17.140625 
Q 6.203125 19.34375 6.6875 21.6875 
z
" id="DejaVuSans-Oblique-75"/>
      <path d="M 89.796875 33.015625 
L 83.40625 0 
L 74.421875 0 
L 80.71875 32.71875 
Q 81.109375 34.8125 81.296875 36.328125 
Q 81.5 37.84375 81.5 38.921875 
Q 81.5 43.3125 79.046875 45.75 
Q 76.609375 48.1875 72.21875 48.1875 
Q 65.671875 48.1875 60.546875 43.28125 
Q 55.421875 38.375 53.90625 30.515625 
L 47.90625 0 
L 38.921875 0 
L 45.3125 32.71875 
Q 45.703125 34.515625 45.890625 36.046875 
Q 46.09375 37.59375 46.09375 38.8125 
Q 46.09375 43.265625 43.65625 45.71875 
Q 41.21875 48.1875 36.921875 48.1875 
Q 30.28125 48.1875 25.140625 43.28125 
Q 20.015625 38.375 18.5 30.515625 
L 12.5 0 
L 3.515625 0 
L 14.203125 54.6875 
L 23.1875 54.6875 
L 21.484375 46.1875 
Q 25.140625 50.984375 30.046875 53.484375 
Q 34.96875 56 40.578125 56 
Q 46.53125 56 50.359375 52.875 
Q 54.203125 49.75 54.984375 44.1875 
Q 59.078125 49.953125 64.46875 52.96875 
Q 69.875 56 75.875 56 
Q 82.90625 56 86.734375 51.953125 
Q 90.578125 47.90625 90.578125 40.484375 
Q 90.578125 38.875 90.375 36.9375 
Q 90.1875 35.015625 89.796875 33.015625 
z
" id="DejaVuSans-Oblique-6d"/>
     </defs>
     <g transform="translate(210.31 335.860562)scale(0.1 -0.1)">
      <use transform="translate(0 0.015625)" xlink:href="#DejaVuSans-Oblique-69"/>
      <use transform="translate(27.783203 0.015625)" xlink:href="#DejaVuSans-Oblique-74"/>
      <use transform="translate(66.992188 0.015625)" xlink:href="#DejaVuSans-Oblique-65"/>
      <use transform="translate(128.515625 0.015625)" xlink:href="#DejaVuSans-Oblique-72"/>
      <use transform="translate(189.111328 0.015625)" xlink:href="#DejaVuSans-2212"/>
      <use transform="translate(292.382812 0.015625)" xlink:href="#DejaVuSans-Oblique-6e"/>
      <use transform="translate(355.761719 0.015625)" xlink:href="#DejaVuSans-Oblique-75"/>
      <use transform="translate(419.140625 0.015625)" xlink:href="#DejaVuSans-Oblique-6d"/>
     </g>
    </g>
   </g>
   <g id="matplotlib.axis_2">
    <g id="ytick_1">
     <g id="line2d_8">
      <defs>
       <path d="M 0 0 
L -3.5 0 
" id="m8818e04e41" style="stroke:#000000;stroke-width:0.8;"/>
      </defs>
      <g>
       <use style="stroke:#000000;stroke-width:0.8;" x="57.6" xlink:href="#m8818e04e41" y="298.619607"/>
      </g>
     </g>
     <g id="text_9">
      <!-- −100 -->
      <g transform="translate(23.132812 302.418826)scale(0.1 -0.1)">
       <use xlink:href="#DejaVuSans-2212"/>
       <use x="83.789062" xlink:href="#DejaVuSans-31"/>
       <use x="147.412109" xlink:href="#DejaVuSans-30"/>
       <use x="211.035156" xlink:href="#DejaVuSans-30"/>
      </g>
     </g>
    </g>
    <g id="ytick_2">
     <g id="line2d_9">
      <g>
       <use style="stroke:#000000;stroke-width:0.8;" x="57.6" xlink:href="#m8818e04e41" y="248.795269"/>
      </g>
     </g>
     <g id="text_10">
      <!-- −80 -->
      <defs>
       <path d="M 31.78125 34.625 
Q 24.75 34.625 20.71875 30.859375 
Q 16.703125 27.09375 16.703125 20.515625 
Q 16.703125 13.921875 20.71875 10.15625 
Q 24.75 6.390625 31.78125 6.390625 
Q 38.8125 6.390625 42.859375 10.171875 
Q 46.921875 13.96875 46.921875 20.515625 
Q 46.921875 27.09375 42.890625 30.859375 
Q 38.875 34.625 31.78125 34.625 
z
M 21.921875 38.8125 
Q 15.578125 40.375 12.03125 44.71875 
Q 8.5 49.078125 8.5 55.328125 
Q 8.5 64.0625 14.71875 69.140625 
Q 20.953125 74.21875 31.78125 74.21875 
Q 42.671875 74.21875 48.875 69.140625 
Q 55.078125 64.0625 55.078125 55.328125 
Q 55.078125 49.078125 51.53125 44.71875 
Q 48 40.375 41.703125 38.8125 
Q 48.828125 37.15625 52.796875 32.3125 
Q 56.78125 27.484375 56.78125 20.515625 
Q 56.78125 9.90625 50.3125 4.234375 
Q 43.84375 -1.421875 31.78125 -1.421875 
Q 19.734375 -1.421875 13.25 4.234375 
Q 6.78125 9.90625 6.78125 20.515625 
Q 6.78125 27.484375 10.78125 32.3125 
Q 14.796875 37.15625 21.921875 38.8125 
z
M 18.3125 54.390625 
Q 18.3125 48.734375 21.84375 45.5625 
Q 25.390625 42.390625 31.78125 42.390625 
Q 38.140625 42.390625 41.71875 45.5625 
Q 45.3125 48.734375 45.3125 54.390625 
Q 45.3125 60.0625 41.71875 63.234375 
Q 38.140625 66.40625 31.78125 66.40625 
Q 25.390625 66.40625 21.84375 63.234375 
Q 18.3125 60.0625 18.3125 54.390625 
z
" id="DejaVuSans-38"/>
      </defs>
      <g transform="translate(29.495313 252.594488)scale(0.1 -0.1)">
       <use xlink:href="#DejaVuSans-2212"/>
       <use x="83.789062" xlink:href="#DejaVuSans-38"/>
       <use x="147.412109" xlink:href="#DejaVuSans-30"/>
      </g>
     </g>
    </g>
    <g id="ytick_3">
     <g id="line2d_10">
      <g>
       <use style="stroke:#000000;stroke-width:0.8;" x="57.6" xlink:href="#m8818e04e41" y="198.970932"/>
      </g>
     </g>
     <g id="text_11">
      <!-- −60 -->
      <defs>
       <path d="M 33.015625 40.375 
Q 26.375 40.375 22.484375 35.828125 
Q 18.609375 31.296875 18.609375 23.390625 
Q 18.609375 15.53125 22.484375 10.953125 
Q 26.375 6.390625 33.015625 6.390625 
Q 39.65625 6.390625 43.53125 10.953125 
Q 47.40625 15.53125 47.40625 23.390625 
Q 47.40625 31.296875 43.53125 35.828125 
Q 39.65625 40.375 33.015625 40.375 
z
M 52.59375 71.296875 
L 52.59375 62.3125 
Q 48.875 64.0625 45.09375 64.984375 
Q 41.3125 65.921875 37.59375 65.921875 
Q 27.828125 65.921875 22.671875 59.328125 
Q 17.53125 52.734375 16.796875 39.40625 
Q 19.671875 43.65625 24.015625 45.921875 
Q 28.375 48.1875 33.59375 48.1875 
Q 44.578125 48.1875 50.953125 41.515625 
Q 57.328125 34.859375 57.328125 23.390625 
Q 57.328125 12.15625 50.6875 5.359375 
Q 44.046875 -1.421875 33.015625 -1.421875 
Q 20.359375 -1.421875 13.671875 8.265625 
Q 6.984375 17.96875 6.984375 36.375 
Q 6.984375 53.65625 15.1875 63.9375 
Q 23.390625 74.21875 37.203125 74.21875 
Q 40.921875 74.21875 44.703125 73.484375 
Q 48.484375 72.75 52.59375 71.296875 
z
" id="DejaVuSans-36"/>
      </defs>
      <g transform="translate(29.495313 202.77015)scale(0.1 -0.1)">
       <use xlink:href="#DejaVuSans-2212"/>
       <use x="83.789062" xlink:href="#DejaVuSans-36"/>
       <use x="147.412109" xlink:href="#DejaVuSans-30"/>
      </g>
     </g>
    </g>
    <g id="ytick_4">
     <g id="line2d_11">
      <g>
       <use style="stroke:#000000;stroke-width:0.8;" x="57.6" xlink:href="#m8818e04e41" y="149.146594"/>
      </g>
     </g>
     <g id="text_12">
      <!-- −40 -->
      <defs>
       <path d="M 37.796875 64.3125 
L 12.890625 25.390625 
L 37.796875 25.390625 
z
M 35.203125 72.90625 
L 47.609375 72.90625 
L 47.609375 25.390625 
L 58.015625 25.390625 
L 58.015625 17.1875 
L 47.609375 17.1875 
L 47.609375 0 
L 37.796875 0 
L 37.796875 17.1875 
L 4.890625 17.1875 
L 4.890625 26.703125 
z
" id="DejaVuSans-34"/>
      </defs>
      <g transform="translate(29.495313 152.945813)scale(0.1 -0.1)">
       <use xlink:href="#DejaVuSans-2212"/>
       <use x="83.789062" xlink:href="#DejaVuSans-34"/>
       <use x="147.412109" xlink:href="#DejaVuSans-30"/>
      </g>
     </g>
    </g>
    <g id="ytick_5">
     <g id="line2d_12">
      <g>
       <use style="stroke:#000000;stroke-width:0.8;" x="57.6" xlink:href="#m8818e04e41" y="99.322256"/>
      </g>
     </g>
     <g id="text_13">
      <!-- −20 -->
      <g transform="translate(29.495313 103.121475)scale(0.1 -0.1)">
       <use xlink:href="#DejaVuSans-2212"/>
       <use x="83.789062" xlink:href="#DejaVuSans-32"/>
       <use x="147.412109" xlink:href="#DejaVuSans-30"/>
      </g>
     </g>
    </g>
    <g id="ytick_6">
     <g id="line2d_13">
      <g>
       <use style="stroke:#000000;stroke-width:0.8;" x="57.6" xlink:href="#m8818e04e41" y="49.497919"/>
      </g>
     </g>
     <g id="text_14">
      <!-- 0 -->
      <g transform="translate(44.2375 53.297137)scale(0.1 -0.1)">
       <use xlink:href="#DejaVuSans-30"/>
      </g>
     </g>
    </g>
    <g id="text_15">
     <!-- $\log_{10}(error)$ -->
     <defs>
      <path d="M 9.421875 75.984375 
L 18.40625 75.984375 
L 18.40625 0 
L 9.421875 0 
z
" id="DejaVuSans-6c"/>
      <path d="M 30.609375 48.390625 
Q 23.390625 48.390625 19.1875 42.75 
Q 14.984375 37.109375 14.984375 27.296875 
Q 14.984375 17.484375 19.15625 11.84375 
Q 23.34375 6.203125 30.609375 6.203125 
Q 37.796875 6.203125 41.984375 11.859375 
Q 46.1875 17.53125 46.1875 27.296875 
Q 46.1875 37.015625 41.984375 42.703125 
Q 37.796875 48.390625 30.609375 48.390625 
z
M 30.609375 56 
Q 42.328125 56 49.015625 48.375 
Q 55.71875 40.765625 55.71875 27.296875 
Q 55.71875 13.875 49.015625 6.21875 
Q 42.328125 -1.421875 30.609375 -1.421875 
Q 18.84375 -1.421875 12.171875 6.21875 
Q 5.515625 13.875 5.515625 27.296875 
Q 5.515625 40.765625 12.171875 48.375 
Q 18.84375 56 30.609375 56 
z
" id="DejaVuSans-6f"/>
      <path d="M 45.40625 27.984375 
Q 45.40625 37.75 41.375 43.109375 
Q 37.359375 48.484375 30.078125 48.484375 
Q 22.859375 48.484375 18.828125 43.109375 
Q 14.796875 37.75 14.796875 27.984375 
Q 14.796875 18.265625 18.828125 12.890625 
Q 22.859375 7.515625 30.078125 7.515625 
Q 37.359375 7.515625 41.375 12.890625 
Q 45.40625 18.265625 45.40625 27.984375 
z
M 54.390625 6.78125 
Q 54.390625 -7.171875 48.1875 -13.984375 
Q 42 -20.796875 29.203125 -20.796875 
Q 24.46875 -20.796875 20.265625 -20.09375 
Q 16.0625 -19.390625 12.109375 -17.921875 
L 12.109375 -9.1875 
Q 16.0625 -11.328125 19.921875 -12.34375 
Q 23.78125 -13.375 27.78125 -13.375 
Q 36.625 -13.375 41.015625 -8.765625 
Q 45.40625 -4.15625 45.40625 5.171875 
L 45.40625 9.625 
Q 42.625 4.78125 38.28125 2.390625 
Q 33.9375 0 27.875 0 
Q 17.828125 0 11.671875 7.65625 
Q 5.515625 15.328125 5.515625 27.984375 
Q 5.515625 40.671875 11.671875 48.328125 
Q 17.828125 56 27.875 56 
Q 33.9375 56 38.28125 53.609375 
Q 42.625 51.21875 45.40625 46.390625 
L 45.40625 54.6875 
L 54.390625 54.6875 
z
" id="DejaVuSans-67"/>
      <path d="M 31 75.875 
Q 24.46875 64.65625 21.28125 53.65625 
Q 18.109375 42.671875 18.109375 31.390625 
Q 18.109375 20.125 21.3125 9.0625 
Q 24.515625 -2 31 -13.1875 
L 23.1875 -13.1875 
Q 15.875 -1.703125 12.234375 9.375 
Q 8.59375 20.453125 8.59375 31.390625 
Q 8.59375 42.28125 12.203125 53.3125 
Q 15.828125 64.359375 23.1875 75.875 
z
" id="DejaVuSans-28"/>
      <path d="M 25.390625 -1.421875 
Q 15.765625 -1.421875 10.171875 4.515625 
Q 4.59375 10.453125 4.59375 20.703125 
Q 4.59375 26.65625 6.515625 32.828125 
Q 8.453125 39.015625 11.53125 43.21875 
Q 16.359375 49.75 22.3125 52.875 
Q 28.265625 56 35.796875 56 
Q 45.125 56 50.859375 50.1875 
Q 56.59375 44.390625 56.59375 35.015625 
Q 56.59375 28.515625 54.6875 22.0625 
Q 52.78125 15.625 49.703125 11.375 
Q 44.921875 4.828125 38.96875 1.703125 
Q 33.015625 -1.421875 25.390625 -1.421875 
z
M 13.921875 21 
Q 13.921875 13.578125 17.015625 9.890625 
Q 20.125 6.203125 26.421875 6.203125 
Q 35.453125 6.203125 41.375 14.078125 
Q 47.3125 21.96875 47.3125 34.078125 
Q 47.3125 41.15625 44.140625 44.765625 
Q 40.96875 48.390625 34.8125 48.390625 
Q 29.734375 48.390625 25.78125 46.015625 
Q 21.828125 43.65625 18.703125 38.8125 
Q 16.40625 35.203125 15.15625 30.5625 
Q 13.921875 25.921875 13.921875 21 
z
" id="DejaVuSans-Oblique-6f"/>
      <path d="M 8.015625 75.875 
L 15.828125 75.875 
Q 23.140625 64.359375 26.78125 53.3125 
Q 30.421875 42.28125 30.421875 31.390625 
Q 30.421875 20.453125 26.78125 9.375 
Q 23.140625 -1.703125 15.828125 -13.1875 
L 8.015625 -13.1875 
Q 14.5 -2 17.703125 9.0625 
Q 20.90625 20.125 20.90625 31.390625 
Q 20.90625 42.671875 17.703125 53.65625 
Q 14.5 64.65625 8.015625 75.875 
z
" id="DejaVuSans-29"/>
     </defs>
     <g transform="translate(17.032812 203.028)rotate(-90)scale(0.1 -0.1)">
      <use transform="translate(0 0.015625)" xlink:href="#DejaVuSans-6c"/>
      <use transform="translate(27.783203 0.015625)" xlink:href="#DejaVuSans-6f"/>
      <use transform="translate(88.964844 0.015625)" xlink:href="#DejaVuSans-67"/>
      <use transform="translate(153.398438 -16.390625)scale(0.7)" xlink:href="#DejaVuSans-31"/>
      <use transform="translate(197.93457 -16.390625)scale(0.7)" xlink:href="#DejaVuSans-30"/>
      <use transform="translate(245.205078 0.015625)" xlink:href="#DejaVuSans-28"/>
      <use transform="translate(284.21875 0.015625)" xlink:href="#DejaVuSans-Oblique-65"/>
      <use transform="translate(345.742188 0.015625)" xlink:href="#DejaVuSans-Oblique-72"/>
      <use transform="translate(386.855469 0.015625)" xlink:href="#DejaVuSans-Oblique-72"/>
      <use transform="translate(427.96875 0.015625)" xlink:href="#DejaVuSans-Oblique-6f"/>
      <use transform="translate(489.150391 0.015625)" xlink:href="#DejaVuSans-Oblique-72"/>
      <use transform="translate(530.263672 0.015625)" xlink:href="#DejaVuSans-29"/>
     </g>
    </g>
   </g>
   <g id="line2d_14">
    <defs>
     <path d="M 0 1.5 
C 0.397805 1.5 0.77937 1.341951 1.06066 1.06066 
C 1.341951 0.77937 1.5 0.397805 1.5 0 
C 1.5 -0.397805 1.341951 -0.77937 1.06066 -1.06066 
C 0.77937 -1.341951 0.397805 -1.5 0 -1.5 
C -0.397805 -1.5 -0.77937 -1.341951 -1.06066 -1.06066 
C -1.341951 -0.77937 -1.5 -0.397805 -1.5 0 
C -1.5 0.397805 -1.341951 0.77937 -1.06066 1.06066 
C -0.77937 1.341951 -0.397805 1.5 0 1.5 
z
" id="mbed5372bf3" style="stroke:#ff0000;"/>
    </defs>
    <g clip-path="url(#p88b5f52dc6)">
     <use style="fill:#ff0000;stroke:#ff0000;" x="73.832727" xlink:href="#mbed5372bf3" y="53.568"/>
     <use style="fill:#ff0000;stroke:#ff0000;" x="74.918528" xlink:href="#mbed5372bf3" y="55.469336"/>
     <use style="fill:#ff0000;stroke:#ff0000;" x="76.00433" xlink:href="#mbed5372bf3" y="57.063999"/>
     <use style="fill:#ff0000;stroke:#ff0000;" x="77.090131" xlink:href="#mbed5372bf3" y="58.487855"/>
     <use style="fill:#ff0000;stroke:#ff0000;" x="78.175932" xlink:href="#mbed5372bf3" y="59.801192"/>
     <use style="fill:#ff0000;stroke:#ff0000;" x="79.261733" xlink:href="#mbed5372bf3" y="61.036512"/>
     <use style="fill:#ff0000;stroke:#ff0000;" x="80.347534" xlink:href="#mbed5372bf3" y="62.21352"/>
     <use style="fill:#ff0000;stroke:#ff0000;" x="81.433335" xlink:href="#mbed5372bf3" y="63.345145"/>
     <use style="fill:#ff0000;stroke:#ff0000;" x="82.519137" xlink:href="#mbed5372bf3" y="64.440362"/>
     <use style="fill:#ff0000;stroke:#ff0000;" x="83.604938" xlink:href="#mbed5372bf3" y="65.505679"/>
     <use style="fill:#ff0000;stroke:#ff0000;" x="84.690739" xlink:href="#mbed5372bf3" y="66.545974"/>
     <use style="fill:#ff0000;stroke:#ff0000;" x="85.77654" xlink:href="#mbed5372bf3" y="67.565003"/>
     <use style="fill:#ff0000;stroke:#ff0000;" x="86.862341" xlink:href="#mbed5372bf3" y="68.565725"/>
     <use style="fill:#ff0000;stroke:#ff0000;" x="87.948142" xlink:href="#mbed5372bf3" y="69.550512"/>
     <use style="fill:#ff0000;stroke:#ff0000;" x="89.033943" xlink:href="#mbed5372bf3" y="70.521299"/>
     <use style="fill:#ff0000;stroke:#ff0000;" x="90.119745" xlink:href="#mbed5372bf3" y="71.479685"/>
     <use style="fill:#ff0000;stroke:#ff0000;" x="91.205546" xlink:href="#mbed5372bf3" y="72.427005"/>
     <use style="fill:#ff0000;stroke:#ff0000;" x="92.291347" xlink:href="#mbed5372bf3" y="73.364391"/>
     <use style="fill:#ff0000;stroke:#ff0000;" x="93.377148" xlink:href="#mbed5372bf3" y="74.292804"/>
     <use style="fill:#ff0000;stroke:#ff0000;" x="94.462949" xlink:href="#mbed5372bf3" y="75.213074"/>
     <use style="fill:#ff0000;stroke:#ff0000;" x="95.54875" xlink:href="#mbed5372bf3" y="76.125919"/>
     <use style="fill:#ff0000;stroke:#ff0000;" x="96.634552" xlink:href="#mbed5372bf3" y="77.031965"/>
     <use style="fill:#ff0000;stroke:#ff0000;" x="97.720353" xlink:href="#mbed5372bf3" y="77.931761"/>
     <use style="fill:#ff0000;stroke:#ff0000;" x="98.806154" xlink:href="#mbed5372bf3" y="78.825794"/>
     <use style="fill:#ff0000;stroke:#ff0000;" x="99.891955" xlink:href="#mbed5372bf3" y="79.714492"/>
     <use style="fill:#ff0000;stroke:#ff0000;" x="100.977756" xlink:href="#mbed5372bf3" y="80.59824"/>
     <use style="fill:#ff0000;stroke:#ff0000;" x="102.063557" xlink:href="#mbed5372bf3" y="81.477382"/>
     <use style="fill:#ff0000;stroke:#ff0000;" x="103.149358" xlink:href="#mbed5372bf3" y="82.352225"/>
     <use style="fill:#ff0000;stroke:#ff0000;" x="104.23516" xlink:href="#mbed5372bf3" y="83.223049"/>
     <use style="fill:#ff0000;stroke:#ff0000;" x="105.320961" xlink:href="#mbed5372bf3" y="84.090106"/>
     <use style="fill:#ff0000;stroke:#ff0000;" x="106.406762" xlink:href="#mbed5372bf3" y="84.953625"/>
     <use style="fill:#ff0000;stroke:#ff0000;" x="107.492563" xlink:href="#mbed5372bf3" y="85.813813"/>
     <use style="fill:#ff0000;stroke:#ff0000;" x="108.578364" xlink:href="#mbed5372bf3" y="86.670863"/>
     <use style="fill:#ff0000;stroke:#ff0000;" x="109.664165" xlink:href="#mbed5372bf3" y="87.524949"/>
     <use style="fill:#ff0000;stroke:#ff0000;" x="110.749967" xlink:href="#mbed5372bf3" y="88.376231"/>
     <use style="fill:#ff0000;stroke:#ff0000;" x="111.835768" xlink:href="#mbed5372bf3" y="89.224857"/>
     <use style="fill:#ff0000;stroke:#ff0000;" x="112.921569" xlink:href="#mbed5372bf3" y="90.070962"/>
     <use style="fill:#ff0000;stroke:#ff0000;" x="114.00737" xlink:href="#mbed5372bf3" y="90.914674"/>
     <use style="fill:#ff0000;stroke:#ff0000;" x="115.093171" xlink:href="#mbed5372bf3" y="91.756109"/>
     <use style="fill:#ff0000;stroke:#ff0000;" x="116.178972" xlink:href="#mbed5372bf3" y="92.595375"/>
     <use style="fill:#ff0000;stroke:#ff0000;" x="117.264773" xlink:href="#mbed5372bf3" y="93.432573"/>
     <use style="fill:#ff0000;stroke:#ff0000;" x="118.350575" xlink:href="#mbed5372bf3" y="94.267797"/>
     <use style="fill:#ff0000;stroke:#ff0000;" x="119.436376" xlink:href="#mbed5372bf3" y="95.101135"/>
     <use style="fill:#ff0000;stroke:#ff0000;" x="120.522177" xlink:href="#mbed5372bf3" y="95.932668"/>
     <use style="fill:#ff0000;stroke:#ff0000;" x="121.607978" xlink:href="#mbed5372bf3" y="96.762474"/>
     <use style="fill:#ff0000;stroke:#ff0000;" x="122.693779" xlink:href="#mbed5372bf3" y="97.590623"/>
     <use style="fill:#ff0000;stroke:#ff0000;" x="123.77958" xlink:href="#mbed5372bf3" y="98.417184"/>
     <use style="fill:#ff0000;stroke:#ff0000;" x="124.865382" xlink:href="#mbed5372bf3" y="99.24222"/>
     <use style="fill:#ff0000;stroke:#ff0000;" x="125.951183" xlink:href="#mbed5372bf3" y="100.065791"/>
     <use style="fill:#ff0000;stroke:#ff0000;" x="127.036984" xlink:href="#mbed5372bf3" y="100.887953"/>
     <use style="fill:#ff0000;stroke:#ff0000;" x="128.122785" xlink:href="#mbed5372bf3" y="101.708758"/>
     <use style="fill:#ff0000;stroke:#ff0000;" x="129.208586" xlink:href="#mbed5372bf3" y="102.528258"/>
     <use style="fill:#ff0000;stroke:#ff0000;" x="130.294387" xlink:href="#mbed5372bf3" y="103.346499"/>
     <use style="fill:#ff0000;stroke:#ff0000;" x="131.380189" xlink:href="#mbed5372bf3" y="104.163526"/>
     <use style="fill:#ff0000;stroke:#ff0000;" x="132.46599" xlink:href="#mbed5372bf3" y="104.979383"/>
     <use style="fill:#ff0000;stroke:#ff0000;" x="133.551791" xlink:href="#mbed5372bf3" y="105.794108"/>
     <use style="fill:#ff0000;stroke:#ff0000;" x="134.637592" xlink:href="#mbed5372bf3" y="106.60774"/>
     <use style="fill:#ff0000;stroke:#ff0000;" x="135.723393" xlink:href="#mbed5372bf3" y="107.420316"/>
     <use style="fill:#ff0000;stroke:#ff0000;" x="136.809194" xlink:href="#mbed5372bf3" y="108.231871"/>
     <use style="fill:#ff0000;stroke:#ff0000;" x="137.894995" xlink:href="#mbed5372bf3" y="109.042436"/>
     <use style="fill:#ff0000;stroke:#ff0000;" x="138.980797" xlink:href="#mbed5372bf3" y="109.852043"/>
     <use style="fill:#ff0000;stroke:#ff0000;" x="140.066598" xlink:href="#mbed5372bf3" y="110.660723"/>
     <use style="fill:#ff0000;stroke:#ff0000;" x="141.152399" xlink:href="#mbed5372bf3" y="111.468503"/>
     <use style="fill:#ff0000;stroke:#ff0000;" x="142.2382" xlink:href="#mbed5372bf3" y="112.275411"/>
     <use style="fill:#ff0000;stroke:#ff0000;" x="143.324001" xlink:href="#mbed5372bf3" y="113.081473"/>
     <use style="fill:#ff0000;stroke:#ff0000;" x="144.409802" xlink:href="#mbed5372bf3" y="113.886714"/>
     <use style="fill:#ff0000;stroke:#ff0000;" x="145.495604" xlink:href="#mbed5372bf3" y="114.691156"/>
     <use style="fill:#ff0000;stroke:#ff0000;" x="146.581405" xlink:href="#mbed5372bf3" y="115.494824"/>
     <use style="fill:#ff0000;stroke:#ff0000;" x="147.667206" xlink:href="#mbed5372bf3" y="116.297738"/>
     <use style="fill:#ff0000;stroke:#ff0000;" x="148.753007" xlink:href="#mbed5372bf3" y="117.09992"/>
     <use style="fill:#ff0000;stroke:#ff0000;" x="149.838808" xlink:href="#mbed5372bf3" y="117.90139"/>
     <use style="fill:#ff0000;stroke:#ff0000;" x="150.924609" xlink:href="#mbed5372bf3" y="118.702167"/>
     <use style="fill:#ff0000;stroke:#ff0000;" x="152.01041" xlink:href="#mbed5372bf3" y="119.502269"/>
     <use style="fill:#ff0000;stroke:#ff0000;" x="153.096212" xlink:href="#mbed5372bf3" y="120.301713"/>
     <use style="fill:#ff0000;stroke:#ff0000;" x="154.182013" xlink:href="#mbed5372bf3" y="121.100518"/>
     <use style="fill:#ff0000;stroke:#ff0000;" x="155.267814" xlink:href="#mbed5372bf3" y="121.898699"/>
     <use style="fill:#ff0000;stroke:#ff0000;" x="156.353615" xlink:href="#mbed5372bf3" y="122.696272"/>
     <use style="fill:#ff0000;stroke:#ff0000;" x="157.439416" xlink:href="#mbed5372bf3" y="123.493253"/>
     <use style="fill:#ff0000;stroke:#ff0000;" x="158.525217" xlink:href="#mbed5372bf3" y="124.289655"/>
     <use style="fill:#ff0000;stroke:#ff0000;" x="159.611019" xlink:href="#mbed5372bf3" y="125.085493"/>
     <use style="fill:#ff0000;stroke:#ff0000;" x="160.69682" xlink:href="#mbed5372bf3" y="125.88078"/>
     <use style="fill:#ff0000;stroke:#ff0000;" x="161.782621" xlink:href="#mbed5372bf3" y="126.67553"/>
     <use style="fill:#ff0000;stroke:#ff0000;" x="162.868422" xlink:href="#mbed5372bf3" y="127.469755"/>
     <use style="fill:#ff0000;stroke:#ff0000;" x="163.954223" xlink:href="#mbed5372bf3" y="128.263467"/>
     <use style="fill:#ff0000;stroke:#ff0000;" x="165.040024" xlink:href="#mbed5372bf3" y="129.056678"/>
     <use style="fill:#ff0000;stroke:#ff0000;" x="166.125825" xlink:href="#mbed5372bf3" y="129.8494"/>
     <use style="fill:#ff0000;stroke:#ff0000;" x="167.211627" xlink:href="#mbed5372bf3" y="130.641642"/>
     <use style="fill:#ff0000;stroke:#ff0000;" x="168.297428" xlink:href="#mbed5372bf3" y="131.433417"/>
     <use style="fill:#ff0000;stroke:#ff0000;" x="169.383229" xlink:href="#mbed5372bf3" y="132.224734"/>
     <use style="fill:#ff0000;stroke:#ff0000;" x="170.46903" xlink:href="#mbed5372bf3" y="133.015603"/>
     <use style="fill:#ff0000;stroke:#ff0000;" x="171.554831" xlink:href="#mbed5372bf3" y="133.806034"/>
     <use style="fill:#ff0000;stroke:#ff0000;" x="172.640632" xlink:href="#mbed5372bf3" y="134.596035"/>
     <use style="fill:#ff0000;stroke:#ff0000;" x="173.726434" xlink:href="#mbed5372bf3" y="135.385617"/>
     <use style="fill:#ff0000;stroke:#ff0000;" x="174.812235" xlink:href="#mbed5372bf3" y="136.174787"/>
     <use style="fill:#ff0000;stroke:#ff0000;" x="175.898036" xlink:href="#mbed5372bf3" y="136.963555"/>
     <use style="fill:#ff0000;stroke:#ff0000;" x="176.983837" xlink:href="#mbed5372bf3" y="137.751928"/>
     <use style="fill:#ff0000;stroke:#ff0000;" x="178.069638" xlink:href="#mbed5372bf3" y="138.539914"/>
     <use style="fill:#ff0000;stroke:#ff0000;" x="179.155439" xlink:href="#mbed5372bf3" y="139.327521"/>
     <use style="fill:#ff0000;stroke:#ff0000;" x="180.24124" xlink:href="#mbed5372bf3" y="140.114757"/>
     <use style="fill:#ff0000;stroke:#ff0000;" x="181.327042" xlink:href="#mbed5372bf3" y="140.901628"/>
     <use style="fill:#ff0000;stroke:#ff0000;" x="182.412843" xlink:href="#mbed5372bf3" y="141.688142"/>
     <use style="fill:#ff0000;stroke:#ff0000;" x="183.498644" xlink:href="#mbed5372bf3" y="142.474306"/>
     <use style="fill:#ff0000;stroke:#ff0000;" x="184.584445" xlink:href="#mbed5372bf3" y="143.260126"/>
     <use style="fill:#ff0000;stroke:#ff0000;" x="185.670246" xlink:href="#mbed5372bf3" y="144.045609"/>
     <use style="fill:#ff0000;stroke:#ff0000;" x="186.756047" xlink:href="#mbed5372bf3" y="144.830761"/>
     <use style="fill:#ff0000;stroke:#ff0000;" x="187.841849" xlink:href="#mbed5372bf3" y="145.615589"/>
     <use style="fill:#ff0000;stroke:#ff0000;" x="188.92765" xlink:href="#mbed5372bf3" y="146.400097"/>
     <use style="fill:#ff0000;stroke:#ff0000;" x="190.013451" xlink:href="#mbed5372bf3" y="147.184292"/>
     <use style="fill:#ff0000;stroke:#ff0000;" x="191.099252" xlink:href="#mbed5372bf3" y="147.96818"/>
     <use style="fill:#ff0000;stroke:#ff0000;" x="192.185053" xlink:href="#mbed5372bf3" y="148.751765"/>
     <use style="fill:#ff0000;stroke:#ff0000;" x="193.270854" xlink:href="#mbed5372bf3" y="149.535054"/>
     <use style="fill:#ff0000;stroke:#ff0000;" x="194.356656" xlink:href="#mbed5372bf3" y="150.318052"/>
     <use style="fill:#ff0000;stroke:#ff0000;" x="195.442457" xlink:href="#mbed5372bf3" y="151.100763"/>
     <use style="fill:#ff0000;stroke:#ff0000;" x="196.528258" xlink:href="#mbed5372bf3" y="151.883192"/>
     <use style="fill:#ff0000;stroke:#ff0000;" x="197.614059" xlink:href="#mbed5372bf3" y="152.665345"/>
     <use style="fill:#ff0000;stroke:#ff0000;" x="198.69986" xlink:href="#mbed5372bf3" y="153.447225"/>
     <use style="fill:#ff0000;stroke:#ff0000;" x="199.785661" xlink:href="#mbed5372bf3" y="154.228839"/>
     <use style="fill:#ff0000;stroke:#ff0000;" x="200.871462" xlink:href="#mbed5372bf3" y="155.010189"/>
     <use style="fill:#ff0000;stroke:#ff0000;" x="201.957264" xlink:href="#mbed5372bf3" y="155.79128"/>
     <use style="fill:#ff0000;stroke:#ff0000;" x="203.043065" xlink:href="#mbed5372bf3" y="156.572117"/>
     <use style="fill:#ff0000;stroke:#ff0000;" x="204.128866" xlink:href="#mbed5372bf3" y="157.352704"/>
     <use style="fill:#ff0000;stroke:#ff0000;" x="205.214667" xlink:href="#mbed5372bf3" y="158.133044"/>
     <use style="fill:#ff0000;stroke:#ff0000;" x="206.300468" xlink:href="#mbed5372bf3" y="158.913142"/>
     <use style="fill:#ff0000;stroke:#ff0000;" x="207.386269" xlink:href="#mbed5372bf3" y="159.693001"/>
     <use style="fill:#ff0000;stroke:#ff0000;" x="208.472071" xlink:href="#mbed5372bf3" y="160.472626"/>
     <use style="fill:#ff0000;stroke:#ff0000;" x="209.557872" xlink:href="#mbed5372bf3" y="161.252019"/>
     <use style="fill:#ff0000;stroke:#ff0000;" x="210.643673" xlink:href="#mbed5372bf3" y="162.031185"/>
     <use style="fill:#ff0000;stroke:#ff0000;" x="211.729474" xlink:href="#mbed5372bf3" y="162.810126"/>
     <use style="fill:#ff0000;stroke:#ff0000;" x="212.815275" xlink:href="#mbed5372bf3" y="163.588847"/>
     <use style="fill:#ff0000;stroke:#ff0000;" x="213.901076" xlink:href="#mbed5372bf3" y="164.367351"/>
     <use style="fill:#ff0000;stroke:#ff0000;" x="214.986877" xlink:href="#mbed5372bf3" y="165.14564"/>
     <use style="fill:#ff0000;stroke:#ff0000;" x="216.072679" xlink:href="#mbed5372bf3" y="165.923719"/>
     <use style="fill:#ff0000;stroke:#ff0000;" x="217.15848" xlink:href="#mbed5372bf3" y="166.701589"/>
     <use style="fill:#ff0000;stroke:#ff0000;" x="218.244281" xlink:href="#mbed5372bf3" y="167.479255"/>
     <use style="fill:#ff0000;stroke:#ff0000;" x="219.330082" xlink:href="#mbed5372bf3" y="168.25672"/>
     <use style="fill:#ff0000;stroke:#ff0000;" x="220.415883" xlink:href="#mbed5372bf3" y="169.033985"/>
     <use style="fill:#ff0000;stroke:#ff0000;" x="221.501684" xlink:href="#mbed5372bf3" y="169.811054"/>
     <use style="fill:#ff0000;stroke:#ff0000;" x="222.587486" xlink:href="#mbed5372bf3" y="170.587931"/>
     <use style="fill:#ff0000;stroke:#ff0000;" x="223.673287" xlink:href="#mbed5372bf3" y="171.364616"/>
     <use style="fill:#ff0000;stroke:#ff0000;" x="224.759088" xlink:href="#mbed5372bf3" y="172.141114"/>
     <use style="fill:#ff0000;stroke:#ff0000;" x="225.844889" xlink:href="#mbed5372bf3" y="172.917427"/>
     <use style="fill:#ff0000;stroke:#ff0000;" x="226.93069" xlink:href="#mbed5372bf3" y="173.693557"/>
     <use style="fill:#ff0000;stroke:#ff0000;" x="228.016491" xlink:href="#mbed5372bf3" y="174.469507"/>
     <use style="fill:#ff0000;stroke:#ff0000;" x="229.102292" xlink:href="#mbed5372bf3" y="175.24528"/>
     <use style="fill:#ff0000;stroke:#ff0000;" x="230.188094" xlink:href="#mbed5372bf3" y="176.020877"/>
     <use style="fill:#ff0000;stroke:#ff0000;" x="231.273895" xlink:href="#mbed5372bf3" y="176.796301"/>
     <use style="fill:#ff0000;stroke:#ff0000;" x="232.359696" xlink:href="#mbed5372bf3" y="177.571555"/>
     <use style="fill:#ff0000;stroke:#ff0000;" x="233.445497" xlink:href="#mbed5372bf3" y="178.34664"/>
     <use style="fill:#ff0000;stroke:#ff0000;" x="234.531298" xlink:href="#mbed5372bf3" y="179.12156"/>
     <use style="fill:#ff0000;stroke:#ff0000;" x="235.617099" xlink:href="#mbed5372bf3" y="179.896315"/>
     <use style="fill:#ff0000;stroke:#ff0000;" x="236.702901" xlink:href="#mbed5372bf3" y="180.670909"/>
     <use style="fill:#ff0000;stroke:#ff0000;" x="237.788702" xlink:href="#mbed5372bf3" y="181.445343"/>
     <use style="fill:#ff0000;stroke:#ff0000;" x="238.874503" xlink:href="#mbed5372bf3" y="182.21962"/>
     <use style="fill:#ff0000;stroke:#ff0000;" x="239.960304" xlink:href="#mbed5372bf3" y="182.99374"/>
     <use style="fill:#ff0000;stroke:#ff0000;" x="241.046105" xlink:href="#mbed5372bf3" y="183.767708"/>
     <use style="fill:#ff0000;stroke:#ff0000;" x="242.131906" xlink:href="#mbed5372bf3" y="184.541523"/>
     <use style="fill:#ff0000;stroke:#ff0000;" x="243.217708" xlink:href="#mbed5372bf3" y="185.315189"/>
     <use style="fill:#ff0000;stroke:#ff0000;" x="244.303509" xlink:href="#mbed5372bf3" y="186.088707"/>
     <use style="fill:#ff0000;stroke:#ff0000;" x="245.38931" xlink:href="#mbed5372bf3" y="186.862079"/>
     <use style="fill:#ff0000;stroke:#ff0000;" x="246.475111" xlink:href="#mbed5372bf3" y="187.635307"/>
     <use style="fill:#ff0000;stroke:#ff0000;" x="247.560912" xlink:href="#mbed5372bf3" y="188.408392"/>
     <use style="fill:#ff0000;stroke:#ff0000;" x="248.646713" xlink:href="#mbed5372bf3" y="189.181336"/>
     <use style="fill:#ff0000;stroke:#ff0000;" x="249.732514" xlink:href="#mbed5372bf3" y="189.954142"/>
     <use style="fill:#ff0000;stroke:#ff0000;" x="250.818316" xlink:href="#mbed5372bf3" y="190.72681"/>
     <use style="fill:#ff0000;stroke:#ff0000;" x="251.904117" xlink:href="#mbed5372bf3" y="191.499342"/>
     <use style="fill:#ff0000;stroke:#ff0000;" x="252.989918" xlink:href="#mbed5372bf3" y="192.27174"/>
     <use style="fill:#ff0000;stroke:#ff0000;" x="254.075719" xlink:href="#mbed5372bf3" y="193.044005"/>
     <use style="fill:#ff0000;stroke:#ff0000;" x="255.16152" xlink:href="#mbed5372bf3" y="193.81614"/>
     <use style="fill:#ff0000;stroke:#ff0000;" x="256.247321" xlink:href="#mbed5372bf3" y="194.588145"/>
     <use style="fill:#ff0000;stroke:#ff0000;" x="257.333123" xlink:href="#mbed5372bf3" y="195.360022"/>
     <use style="fill:#ff0000;stroke:#ff0000;" x="258.418924" xlink:href="#mbed5372bf3" y="196.131772"/>
     <use style="fill:#ff0000;stroke:#ff0000;" x="259.504725" xlink:href="#mbed5372bf3" y="196.903398"/>
     <use style="fill:#ff0000;stroke:#ff0000;" x="260.590526" xlink:href="#mbed5372bf3" y="197.6749"/>
     <use style="fill:#ff0000;stroke:#ff0000;" x="261.676327" xlink:href="#mbed5372bf3" y="198.446279"/>
     <use style="fill:#ff0000;stroke:#ff0000;" x="262.762128" xlink:href="#mbed5372bf3" y="199.217538"/>
     <use style="fill:#ff0000;stroke:#ff0000;" x="263.847929" xlink:href="#mbed5372bf3" y="199.988677"/>
     <use style="fill:#ff0000;stroke:#ff0000;" x="264.933731" xlink:href="#mbed5372bf3" y="200.759698"/>
     <use style="fill:#ff0000;stroke:#ff0000;" x="266.019532" xlink:href="#mbed5372bf3" y="201.530603"/>
     <use style="fill:#ff0000;stroke:#ff0000;" x="267.105333" xlink:href="#mbed5372bf3" y="202.301391"/>
     <use style="fill:#ff0000;stroke:#ff0000;" x="268.191134" xlink:href="#mbed5372bf3" y="203.072066"/>
     <use style="fill:#ff0000;stroke:#ff0000;" x="269.276935" xlink:href="#mbed5372bf3" y="203.842627"/>
     <use style="fill:#ff0000;stroke:#ff0000;" x="270.362736" xlink:href="#mbed5372bf3" y="204.613077"/>
     <use style="fill:#ff0000;stroke:#ff0000;" x="271.448538" xlink:href="#mbed5372bf3" y="205.383416"/>
     <use style="fill:#ff0000;stroke:#ff0000;" x="272.534339" xlink:href="#mbed5372bf3" y="206.153645"/>
     <use style="fill:#ff0000;stroke:#ff0000;" x="273.62014" xlink:href="#mbed5372bf3" y="206.923767"/>
     <use style="fill:#ff0000;stroke:#ff0000;" x="274.705941" xlink:href="#mbed5372bf3" y="207.693781"/>
     <use style="fill:#ff0000;stroke:#ff0000;" x="275.791742" xlink:href="#mbed5372bf3" y="208.463689"/>
     <use style="fill:#ff0000;stroke:#ff0000;" x="276.877543" xlink:href="#mbed5372bf3" y="209.233492"/>
     <use style="fill:#ff0000;stroke:#ff0000;" x="277.963344" xlink:href="#mbed5372bf3" y="210.003192"/>
     <use style="fill:#ff0000;stroke:#ff0000;" x="279.049146" xlink:href="#mbed5372bf3" y="210.772789"/>
     <use style="fill:#ff0000;stroke:#ff0000;" x="280.134947" xlink:href="#mbed5372bf3" y="211.542284"/>
     <use style="fill:#ff0000;stroke:#ff0000;" x="281.220748" xlink:href="#mbed5372bf3" y="212.311679"/>
     <use style="fill:#ff0000;stroke:#ff0000;" x="282.306549" xlink:href="#mbed5372bf3" y="213.080974"/>
     <use style="fill:#ff0000;stroke:#ff0000;" x="283.39235" xlink:href="#mbed5372bf3" y="213.85017"/>
     <use style="fill:#ff0000;stroke:#ff0000;" x="284.478151" xlink:href="#mbed5372bf3" y="214.619269"/>
     <use style="fill:#ff0000;stroke:#ff0000;" x="285.563953" xlink:href="#mbed5372bf3" y="215.388272"/>
     <use style="fill:#ff0000;stroke:#ff0000;" x="286.649754" xlink:href="#mbed5372bf3" y="216.157178"/>
     <use style="fill:#ff0000;stroke:#ff0000;" x="287.735555" xlink:href="#mbed5372bf3" y="216.925991"/>
     <use style="fill:#ff0000;stroke:#ff0000;" x="288.821356" xlink:href="#mbed5372bf3" y="217.694709"/>
     <use style="fill:#ff0000;stroke:#ff0000;" x="289.907157" xlink:href="#mbed5372bf3" y="218.463335"/>
     <use style="fill:#ff0000;stroke:#ff0000;" x="290.992958" xlink:href="#mbed5372bf3" y="219.231869"/>
     <use style="fill:#ff0000;stroke:#ff0000;" x="292.07876" xlink:href="#mbed5372bf3" y="220.000312"/>
     <use style="fill:#ff0000;stroke:#ff0000;" x="293.164561" xlink:href="#mbed5372bf3" y="220.768664"/>
     <use style="fill:#ff0000;stroke:#ff0000;" x="294.250362" xlink:href="#mbed5372bf3" y="221.536928"/>
     <use style="fill:#ff0000;stroke:#ff0000;" x="295.336163" xlink:href="#mbed5372bf3" y="222.305103"/>
     <use style="fill:#ff0000;stroke:#ff0000;" x="296.421964" xlink:href="#mbed5372bf3" y="223.073191"/>
     <use style="fill:#ff0000;stroke:#ff0000;" x="297.507765" xlink:href="#mbed5372bf3" y="223.841192"/>
     <use style="fill:#ff0000;stroke:#ff0000;" x="298.593566" xlink:href="#mbed5372bf3" y="224.609107"/>
     <use style="fill:#ff0000;stroke:#ff0000;" x="299.679368" xlink:href="#mbed5372bf3" y="225.376938"/>
     <use style="fill:#ff0000;stroke:#ff0000;" x="300.765169" xlink:href="#mbed5372bf3" y="226.144684"/>
     <use style="fill:#ff0000;stroke:#ff0000;" x="301.85097" xlink:href="#mbed5372bf3" y="226.912346"/>
     <use style="fill:#ff0000;stroke:#ff0000;" x="302.936771" xlink:href="#mbed5372bf3" y="227.679926"/>
     <use style="fill:#ff0000;stroke:#ff0000;" x="304.022572" xlink:href="#mbed5372bf3" y="228.447424"/>
     <use style="fill:#ff0000;stroke:#ff0000;" x="305.108373" xlink:href="#mbed5372bf3" y="229.214841"/>
     <use style="fill:#ff0000;stroke:#ff0000;" x="306.194175" xlink:href="#mbed5372bf3" y="229.982178"/>
     <use style="fill:#ff0000;stroke:#ff0000;" x="307.279976" xlink:href="#mbed5372bf3" y="230.749434"/>
     <use style="fill:#ff0000;stroke:#ff0000;" x="308.365777" xlink:href="#mbed5372bf3" y="231.516612"/>
     <use style="fill:#ff0000;stroke:#ff0000;" x="309.451578" xlink:href="#mbed5372bf3" y="232.283712"/>
     <use style="fill:#ff0000;stroke:#ff0000;" x="310.537379" xlink:href="#mbed5372bf3" y="233.050734"/>
     <use style="fill:#ff0000;stroke:#ff0000;" x="311.62318" xlink:href="#mbed5372bf3" y="233.81768"/>
     <use style="fill:#ff0000;stroke:#ff0000;" x="312.708981" xlink:href="#mbed5372bf3" y="234.584549"/>
     <use style="fill:#ff0000;stroke:#ff0000;" x="313.794783" xlink:href="#mbed5372bf3" y="235.351343"/>
     <use style="fill:#ff0000;stroke:#ff0000;" x="314.880584" xlink:href="#mbed5372bf3" y="236.118062"/>
     <use style="fill:#ff0000;stroke:#ff0000;" x="315.966385" xlink:href="#mbed5372bf3" y="236.884707"/>
     <use style="fill:#ff0000;stroke:#ff0000;" x="317.052186" xlink:href="#mbed5372bf3" y="237.651278"/>
     <use style="fill:#ff0000;stroke:#ff0000;" x="318.137987" xlink:href="#mbed5372bf3" y="238.417777"/>
     <use style="fill:#ff0000;stroke:#ff0000;" x="319.223788" xlink:href="#mbed5372bf3" y="239.184203"/>
     <use style="fill:#ff0000;stroke:#ff0000;" x="320.30959" xlink:href="#mbed5372bf3" y="239.950558"/>
     <use style="fill:#ff0000;stroke:#ff0000;" x="321.395391" xlink:href="#mbed5372bf3" y="240.716842"/>
     <use style="fill:#ff0000;stroke:#ff0000;" x="322.481192" xlink:href="#mbed5372bf3" y="241.483056"/>
     <use style="fill:#ff0000;stroke:#ff0000;" x="323.566993" xlink:href="#mbed5372bf3" y="242.2492"/>
     <use style="fill:#ff0000;stroke:#ff0000;" x="324.652794" xlink:href="#mbed5372bf3" y="243.015274"/>
     <use style="fill:#ff0000;stroke:#ff0000;" x="325.738595" xlink:href="#mbed5372bf3" y="243.781281"/>
     <use style="fill:#ff0000;stroke:#ff0000;" x="326.824396" xlink:href="#mbed5372bf3" y="244.547219"/>
     <use style="fill:#ff0000;stroke:#ff0000;" x="327.910198" xlink:href="#mbed5372bf3" y="245.31309"/>
     <use style="fill:#ff0000;stroke:#ff0000;" x="328.995999" xlink:href="#mbed5372bf3" y="246.078894"/>
     <use style="fill:#ff0000;stroke:#ff0000;" x="330.0818" xlink:href="#mbed5372bf3" y="246.844632"/>
     <use style="fill:#ff0000;stroke:#ff0000;" x="331.167601" xlink:href="#mbed5372bf3" y="247.610304"/>
     <use style="fill:#ff0000;stroke:#ff0000;" x="332.253402" xlink:href="#mbed5372bf3" y="248.37591"/>
     <use style="fill:#ff0000;stroke:#ff0000;" x="333.339203" xlink:href="#mbed5372bf3" y="249.141453"/>
     <use style="fill:#ff0000;stroke:#ff0000;" x="334.425005" xlink:href="#mbed5372bf3" y="249.906931"/>
     <use style="fill:#ff0000;stroke:#ff0000;" x="335.510806" xlink:href="#mbed5372bf3" y="250.672345"/>
     <use style="fill:#ff0000;stroke:#ff0000;" x="336.596607" xlink:href="#mbed5372bf3" y="251.437697"/>
     <use style="fill:#ff0000;stroke:#ff0000;" x="337.682408" xlink:href="#mbed5372bf3" y="252.202986"/>
     <use style="fill:#ff0000;stroke:#ff0000;" x="338.768209" xlink:href="#mbed5372bf3" y="252.968213"/>
     <use style="fill:#ff0000;stroke:#ff0000;" x="339.85401" xlink:href="#mbed5372bf3" y="253.733378"/>
     <use style="fill:#ff0000;stroke:#ff0000;" x="340.939811" xlink:href="#mbed5372bf3" y="254.498482"/>
     <use style="fill:#ff0000;stroke:#ff0000;" x="342.025613" xlink:href="#mbed5372bf3" y="255.263526"/>
     <use style="fill:#ff0000;stroke:#ff0000;" x="343.111414" xlink:href="#mbed5372bf3" y="256.02851"/>
     <use style="fill:#ff0000;stroke:#ff0000;" x="344.197215" xlink:href="#mbed5372bf3" y="256.793434"/>
     <use style="fill:#ff0000;stroke:#ff0000;" x="345.283016" xlink:href="#mbed5372bf3" y="257.558299"/>
     <use style="fill:#ff0000;stroke:#ff0000;" x="346.368817" xlink:href="#mbed5372bf3" y="258.323105"/>
     <use style="fill:#ff0000;stroke:#ff0000;" x="347.454618" xlink:href="#mbed5372bf3" y="259.087853"/>
     <use style="fill:#ff0000;stroke:#ff0000;" x="348.54042" xlink:href="#mbed5372bf3" y="259.852543"/>
     <use style="fill:#ff0000;stroke:#ff0000;" x="349.626221" xlink:href="#mbed5372bf3" y="260.617176"/>
     <use style="fill:#ff0000;stroke:#ff0000;" x="350.712022" xlink:href="#mbed5372bf3" y="261.381752"/>
     <use style="fill:#ff0000;stroke:#ff0000;" x="351.797823" xlink:href="#mbed5372bf3" y="262.146272"/>
     <use style="fill:#ff0000;stroke:#ff0000;" x="352.883624" xlink:href="#mbed5372bf3" y="262.910735"/>
     <use style="fill:#ff0000;stroke:#ff0000;" x="353.969425" xlink:href="#mbed5372bf3" y="263.675144"/>
     <use style="fill:#ff0000;stroke:#ff0000;" x="355.055227" xlink:href="#mbed5372bf3" y="264.439496"/>
     <use style="fill:#ff0000;stroke:#ff0000;" x="356.141028" xlink:href="#mbed5372bf3" y="265.203795"/>
     <use style="fill:#ff0000;stroke:#ff0000;" x="357.226829" xlink:href="#mbed5372bf3" y="265.968039"/>
     <use style="fill:#ff0000;stroke:#ff0000;" x="358.31263" xlink:href="#mbed5372bf3" y="266.732229"/>
     <use style="fill:#ff0000;stroke:#ff0000;" x="359.398431" xlink:href="#mbed5372bf3" y="267.496365"/>
     <use style="fill:#ff0000;stroke:#ff0000;" x="360.484232" xlink:href="#mbed5372bf3" y="268.260448"/>
     <use style="fill:#ff0000;stroke:#ff0000;" x="361.570033" xlink:href="#mbed5372bf3" y="269.024479"/>
     <use style="fill:#ff0000;stroke:#ff0000;" x="362.655835" xlink:href="#mbed5372bf3" y="269.788457"/>
     <use style="fill:#ff0000;stroke:#ff0000;" x="363.741636" xlink:href="#mbed5372bf3" y="270.552384"/>
     <use style="fill:#ff0000;stroke:#ff0000;" x="364.827437" xlink:href="#mbed5372bf3" y="271.316259"/>
     <use style="fill:#ff0000;stroke:#ff0000;" x="365.913238" xlink:href="#mbed5372bf3" y="272.080083"/>
     <use style="fill:#ff0000;stroke:#ff0000;" x="366.999039" xlink:href="#mbed5372bf3" y="272.843856"/>
     <use style="fill:#ff0000;stroke:#ff0000;" x="368.08484" xlink:href="#mbed5372bf3" y="273.607578"/>
     <use style="fill:#ff0000;stroke:#ff0000;" x="369.170642" xlink:href="#mbed5372bf3" y="274.371251"/>
     <use style="fill:#ff0000;stroke:#ff0000;" x="370.256443" xlink:href="#mbed5372bf3" y="275.134873"/>
     <use style="fill:#ff0000;stroke:#ff0000;" x="371.342244" xlink:href="#mbed5372bf3" y="275.898447"/>
     <use style="fill:#ff0000;stroke:#ff0000;" x="372.428045" xlink:href="#mbed5372bf3" y="276.661971"/>
     <use style="fill:#ff0000;stroke:#ff0000;" x="373.513846" xlink:href="#mbed5372bf3" y="277.425447"/>
     <use style="fill:#ff0000;stroke:#ff0000;" x="374.599647" xlink:href="#mbed5372bf3" y="278.188875"/>
     <use style="fill:#ff0000;stroke:#ff0000;" x="375.685448" xlink:href="#mbed5372bf3" y="278.952254"/>
     <use style="fill:#ff0000;stroke:#ff0000;" x="376.77125" xlink:href="#mbed5372bf3" y="279.715586"/>
     <use style="fill:#ff0000;stroke:#ff0000;" x="377.857051" xlink:href="#mbed5372bf3" y="280.478871"/>
     <use style="fill:#ff0000;stroke:#ff0000;" x="378.942852" xlink:href="#mbed5372bf3" y="281.242109"/>
     <use style="fill:#ff0000;stroke:#ff0000;" x="380.028653" xlink:href="#mbed5372bf3" y="282.0053"/>
     <use style="fill:#ff0000;stroke:#ff0000;" x="381.114454" xlink:href="#mbed5372bf3" y="282.768445"/>
     <use style="fill:#ff0000;stroke:#ff0000;" x="382.200255" xlink:href="#mbed5372bf3" y="283.531544"/>
     <use style="fill:#ff0000;stroke:#ff0000;" x="383.286057" xlink:href="#mbed5372bf3" y="284.294598"/>
     <use style="fill:#ff0000;stroke:#ff0000;" x="384.371858" xlink:href="#mbed5372bf3" y="285.057606"/>
     <use style="fill:#ff0000;stroke:#ff0000;" x="385.457659" xlink:href="#mbed5372bf3" y="285.820569"/>
     <use style="fill:#ff0000;stroke:#ff0000;" x="386.54346" xlink:href="#mbed5372bf3" y="286.583487"/>
     <use style="fill:#ff0000;stroke:#ff0000;" x="387.629261" xlink:href="#mbed5372bf3" y="287.346367"/>
     <use style="fill:#ff0000;stroke:#ff0000;" x="388.715062" xlink:href="#mbed5372bf3" y="288.109188"/>
     <use style="fill:#ff0000;stroke:#ff0000;" x="389.800863" xlink:href="#mbed5372bf3" y="288.871967"/>
     <use style="fill:#ff0000;stroke:#ff0000;" x="390.886665" xlink:href="#mbed5372bf3" y="289.634747"/>
     <use style="fill:#ff0000;stroke:#ff0000;" x="391.972466" xlink:href="#mbed5372bf3" y="290.397371"/>
     <use style="fill:#ff0000;stroke:#ff0000;" x="393.058267" xlink:href="#mbed5372bf3" y="291.160147"/>
     <use style="fill:#ff0000;stroke:#ff0000;" x="394.144068" xlink:href="#mbed5372bf3" y="291.922997"/>
     <use style="fill:#ff0000;stroke:#ff0000;" x="395.229869" xlink:href="#mbed5372bf3" y="292.686004"/>
     <use style="fill:#ff0000;stroke:#ff0000;" x="396.31567" xlink:href="#mbed5372bf3" y="293.447548"/>
     <use style="fill:#ff0000;stroke:#ff0000;" x="397.401472" xlink:href="#mbed5372bf3" y="294.213159"/>
     <use style="fill:#ff0000;stroke:#ff0000;" x="398.487273" xlink:href="#mbed5372bf3" y="294.976333"/>
    </g>
   </g>
   <g id="line2d_15">
    <path clip-path="url(#p88b5f52dc6)" d="M 73.832727 64.433223 
L 398.487273 295.488 
L 398.487273 295.488 
" style="fill:none;stroke:#008000;stroke-linecap:square;stroke-width:1.5;"/>
   </g>
   <g id="patch_3">
    <path d="M 57.6 307.584 
L 57.6 41.472 
" style="fill:none;stroke:#000000;stroke-linecap:square;stroke-linejoin:miter;stroke-width:0.8;"/>
   </g>
   <g id="patch_4">
    <path d="M 414.72 307.584 
L 414.72 41.472 
" style="fill:none;stroke:#000000;stroke-linecap:square;stroke-linejoin:miter;stroke-width:0.8;"/>
   </g>
   <g id="patch_5">
    <path d="M 57.6 307.584 
L 414.72 307.584 
" style="fill:none;stroke:#000000;stroke-linecap:square;stroke-linejoin:miter;stroke-width:0.8;"/>
   </g>
   <g id="patch_6">
    <path d="M 57.6 41.472 
L 414.72 41.472 
" style="fill:none;stroke:#000000;stroke-linecap:square;stroke-linejoin:miter;stroke-width:0.8;"/>
   </g>
   <g id="text_16">
    <!-- Exponential -->
    <defs>
     <path d="M 9.8125 72.90625 
L 55.90625 72.90625 
L 55.90625 64.59375 
L 19.671875 64.59375 
L 19.671875 43.015625 
L 54.390625 43.015625 
L 54.390625 34.71875 
L 19.671875 34.71875 
L 19.671875 8.296875 
L 56.78125 8.296875 
L 56.78125 0 
L 9.8125 0 
z
" id="DejaVuSans-45"/>
     <path d="M 54.890625 54.6875 
L 35.109375 28.078125 
L 55.90625 0 
L 45.3125 0 
L 29.390625 21.484375 
L 13.484375 0 
L 2.875 0 
L 24.125 28.609375 
L 4.6875 54.6875 
L 15.28125 54.6875 
L 29.78125 35.203125 
L 44.28125 54.6875 
z
" id="DejaVuSans-78"/>
     <path d="M 18.109375 8.203125 
L 18.109375 -20.796875 
L 9.078125 -20.796875 
L 9.078125 54.6875 
L 18.109375 54.6875 
L 18.109375 46.390625 
Q 20.953125 51.265625 25.265625 53.625 
Q 29.59375 56 35.59375 56 
Q 45.5625 56 51.78125 48.09375 
Q 58.015625 40.1875 58.015625 27.296875 
Q 58.015625 14.40625 51.78125 6.484375 
Q 45.5625 -1.421875 35.59375 -1.421875 
Q 29.59375 -1.421875 25.265625 0.953125 
Q 20.953125 3.328125 18.109375 8.203125 
z
M 48.6875 27.296875 
Q 48.6875 37.203125 44.609375 42.84375 
Q 40.53125 48.484375 33.40625 48.484375 
Q 26.265625 48.484375 22.1875 42.84375 
Q 18.109375 37.203125 18.109375 27.296875 
Q 18.109375 17.390625 22.1875 11.75 
Q 26.265625 6.109375 33.40625 6.109375 
Q 40.53125 6.109375 44.609375 11.75 
Q 48.6875 17.390625 48.6875 27.296875 
z
" id="DejaVuSans-70"/>
     <path d="M 54.890625 33.015625 
L 54.890625 0 
L 45.90625 0 
L 45.90625 32.71875 
Q 45.90625 40.484375 42.875 44.328125 
Q 39.84375 48.1875 33.796875 48.1875 
Q 26.515625 48.1875 22.3125 43.546875 
Q 18.109375 38.921875 18.109375 30.90625 
L 18.109375 0 
L 9.078125 0 
L 9.078125 54.6875 
L 18.109375 54.6875 
L 18.109375 46.1875 
Q 21.34375 51.125 25.703125 53.5625 
Q 30.078125 56 35.796875 56 
Q 45.21875 56 50.046875 50.171875 
Q 54.890625 44.34375 54.890625 33.015625 
z
" id="DejaVuSans-6e"/>
     <path d="M 56.203125 29.59375 
L 56.203125 25.203125 
L 14.890625 25.203125 
Q 15.484375 15.921875 20.484375 11.0625 
Q 25.484375 6.203125 34.421875 6.203125 
Q 39.59375 6.203125 44.453125 7.46875 
Q 49.3125 8.734375 54.109375 11.28125 
L 54.109375 2.78125 
Q 49.265625 0.734375 44.1875 -0.34375 
Q 39.109375 -1.421875 33.890625 -1.421875 
Q 20.796875 -1.421875 13.15625 6.1875 
Q 5.515625 13.8125 5.515625 26.8125 
Q 5.515625 40.234375 12.765625 48.109375 
Q 20.015625 56 32.328125 56 
Q 43.359375 56 49.78125 48.890625 
Q 56.203125 41.796875 56.203125 29.59375 
z
M 47.21875 32.234375 
Q 47.125 39.59375 43.09375 43.984375 
Q 39.0625 48.390625 32.421875 48.390625 
Q 24.90625 48.390625 20.390625 44.140625 
Q 15.875 39.890625 15.1875 32.171875 
z
" id="DejaVuSans-65"/>
     <path d="M 18.3125 70.21875 
L 18.3125 54.6875 
L 36.8125 54.6875 
L 36.8125 47.703125 
L 18.3125 47.703125 
L 18.3125 18.015625 
Q 18.3125 11.328125 20.140625 9.421875 
Q 21.96875 7.515625 27.59375 7.515625 
L 36.8125 7.515625 
L 36.8125 0 
L 27.59375 0 
Q 17.1875 0 13.234375 3.875 
Q 9.28125 7.765625 9.28125 18.015625 
L 9.28125 47.703125 
L 2.6875 47.703125 
L 2.6875 54.6875 
L 9.28125 54.6875 
L 9.28125 70.21875 
z
" id="DejaVuSans-74"/>
     <path d="M 9.421875 54.6875 
L 18.40625 54.6875 
L 18.40625 0 
L 9.421875 0 
z
M 9.421875 75.984375 
L 18.40625 75.984375 
L 18.40625 64.59375 
L 9.421875 64.59375 
z
" id="DejaVuSans-69"/>
     <path d="M 34.28125 27.484375 
Q 23.390625 27.484375 19.1875 25 
Q 14.984375 22.515625 14.984375 16.5 
Q 14.984375 11.71875 18.140625 8.90625 
Q 21.296875 6.109375 26.703125 6.109375 
Q 34.1875 6.109375 38.703125 11.40625 
Q 43.21875 16.703125 43.21875 25.484375 
L 43.21875 27.484375 
z
M 52.203125 31.203125 
L 52.203125 0 
L 43.21875 0 
L 43.21875 8.296875 
Q 40.140625 3.328125 35.546875 0.953125 
Q 30.953125 -1.421875 24.3125 -1.421875 
Q 15.921875 -1.421875 10.953125 3.296875 
Q 6 8.015625 6 15.921875 
Q 6 25.140625 12.171875 29.828125 
Q 18.359375 34.515625 30.609375 34.515625 
L 43.21875 34.515625 
L 43.21875 35.40625 
Q 43.21875 41.609375 39.140625 45 
Q 35.0625 48.390625 27.6875 48.390625 
Q 23 48.390625 18.546875 47.265625 
Q 14.109375 46.140625 10.015625 43.890625 
L 10.015625 52.203125 
Q 14.9375 54.109375 19.578125 55.046875 
Q 24.21875 56 28.609375 56 
Q 40.484375 56 46.34375 49.84375 
Q 52.203125 43.703125 52.203125 31.203125 
z
" id="DejaVuSans-61"/>
    </defs>
    <g transform="translate(200.6775 35.472)scale(0.12 -0.12)">
     <use xlink:href="#DejaVuSans-45"/>
     <use x="63.183594" xlink:href="#DejaVuSans-78"/>
     <use x="122.363281" xlink:href="#DejaVuSans-70"/>
     <use x="185.839844" xlink:href="#DejaVuSans-6f"/>
     <use x="247.021484" xlink:href="#DejaVuSans-6e"/>
     <use x="310.400391" xlink:href="#DejaVuSans-65"/>
     <use x="371.923828" xlink:href="#DejaVuSans-6e"/>
     <use x="435.302734" xlink:href="#DejaVuSans-74"/>
     <use x="474.511719" xlink:href="#DejaVuSans-69"/>
     <use x="502.294922" xlink:href="#DejaVuSans-61"/>
     <use x="563.574219" xlink:href="#DejaVuSans-6c"/>
    </g>
   </g>
   <g id="legend_1">
    <g id="patch_7">
     <path d="M 263.28 64.798875 
L 410.52 64.798875 
Q 411.72 64.798875 411.72 63.598875 
L 411.72 45.672 
Q 411.72 44.472 410.52 44.472 
L 263.28 44.472 
Q 262.08 44.472 262.08 45.672 
L 262.08 63.598875 
Q 262.08 64.798875 263.28 64.798875 
z
" style="fill:#ffffff;opacity:0.8;stroke:#cccccc;stroke-linejoin:miter;"/>
    </g>
    <g id="line2d_16"/>
    <g id="line2d_17">
     <g>
      <use style="fill:#ff0000;stroke:#ff0000;" x="270.48" xlink:href="#mbed5372bf3" y="49.331062"/>
     </g>
    </g>
    <g id="text_17">
     <!-- error -->
     <defs>
      <path d="M 41.109375 46.296875 
Q 39.59375 47.171875 37.8125 47.578125 
Q 36.03125 48 33.890625 48 
Q 26.265625 48 22.1875 43.046875 
Q 18.109375 38.09375 18.109375 28.8125 
L 18.109375 0 
L 9.078125 0 
L 9.078125 54.6875 
L 18.109375 54.6875 
L 18.109375 46.1875 
Q 20.953125 51.171875 25.484375 53.578125 
Q 30.03125 56 36.53125 56 
Q 37.453125 56 38.578125 55.875 
Q 39.703125 55.765625 41.0625 55.515625 
z
" id="DejaVuSans-72"/>
     </defs>
     <g transform="translate(281.28 51.431062)scale(0.06 -0.06)">
      <use xlink:href="#DejaVuSans-65"/>
      <use x="61.523438" xlink:href="#DejaVuSans-72"/>
      <use x="102.621094" xlink:href="#DejaVuSans-72"/>
      <use x="143.703125" xlink:href="#DejaVuSans-6f"/>
      <use x="204.884766" xlink:href="#DejaVuSans-72"/>
     </g>
    </g>
    <g id="line2d_18">
     <path d="M 264.48 59.038875 
L 276.48 59.038875 
" style="fill:none;stroke:#008000;stroke-linecap:square;stroke-width:1.5;"/>
    </g>
    <g id="line2d_19"/>
    <g id="text_18">
     <!-- $lin.\ fit.\ R^2=0.999966\ slope=-0.310193$ -->
     <defs>
      <path d="M 18.3125 75.984375 
L 27.296875 75.984375 
L 12.5 0 
L 3.515625 0 
z
" id="DejaVuSans-Oblique-6c"/>
      <path d="M 10.6875 12.40625 
L 21 12.40625 
L 21 0 
L 10.6875 0 
z
" id="DejaVuSans-2e"/>
      <path d="M 47.796875 75.984375 
L 46.390625 68.5 
L 37.796875 68.5 
Q 32.90625 68.5 30.6875 66.578125 
Q 28.46875 64.65625 27.390625 59.515625 
L 26.421875 54.6875 
L 41.21875 54.6875 
L 39.890625 47.703125 
L 25.09375 47.703125 
L 15.828125 0 
L 6.78125 0 
L 16.109375 47.703125 
L 7.515625 47.703125 
L 8.796875 54.6875 
L 17.390625 54.6875 
L 18.109375 58.5 
Q 19.96875 68.171875 24.625 72.078125 
Q 29.296875 75.984375 39.3125 75.984375 
z
" id="DejaVuSans-Oblique-66"/>
      <path d="M 25.203125 64.796875 
L 20.21875 38.921875 
L 32.90625 38.921875 
Q 40.375 38.921875 44.984375 43.046875 
Q 49.609375 47.171875 49.609375 53.8125 
Q 49.609375 59.125 46.5 61.953125 
Q 43.40625 64.796875 37.59375 64.796875 
z
M 43.3125 35.015625 
Q 46.4375 34.28125 48.515625 31.390625 
Q 50.59375 28.515625 53.328125 19.921875 
L 59.515625 0 
L 49.125 0 
L 43.40625 18.703125 
Q 41.21875 25.921875 38.328125 28.359375 
Q 35.453125 30.8125 29.5 30.8125 
L 18.609375 30.8125 
L 12.59375 0 
L 2.6875 0 
L 16.890625 72.90625 
L 39.109375 72.90625 
Q 49.21875 72.90625 54.609375 68.328125 
Q 60.015625 63.765625 60.015625 55.171875 
Q 60.015625 47.5625 55.421875 41.984375 
Q 50.828125 36.421875 43.3125 35.015625 
z
" id="DejaVuSans-Oblique-52"/>
      <path d="M 10.59375 45.40625 
L 73.1875 45.40625 
L 73.1875 37.203125 
L 10.59375 37.203125 
z
M 10.59375 25.484375 
L 73.1875 25.484375 
L 73.1875 17.1875 
L 10.59375 17.1875 
z
" id="DejaVuSans-3d"/>
      <path d="M 10.984375 1.515625 
L 10.984375 10.5 
Q 14.703125 8.734375 18.5 7.8125 
Q 22.3125 6.890625 25.984375 6.890625 
Q 35.75 6.890625 40.890625 13.453125 
Q 46.046875 20.015625 46.78125 33.40625 
Q 43.953125 29.203125 39.59375 26.953125 
Q 35.25 24.703125 29.984375 24.703125 
Q 19.046875 24.703125 12.671875 31.3125 
Q 6.296875 37.9375 6.296875 49.421875 
Q 6.296875 60.640625 12.9375 67.421875 
Q 19.578125 74.21875 30.609375 74.21875 
Q 43.265625 74.21875 49.921875 64.515625 
Q 56.59375 54.828125 56.59375 36.375 
Q 56.59375 19.140625 48.40625 8.859375 
Q 40.234375 -1.421875 26.421875 -1.421875 
Q 22.703125 -1.421875 18.890625 -0.6875 
Q 15.09375 0.046875 10.984375 1.515625 
z
M 30.609375 32.421875 
Q 37.25 32.421875 41.125 36.953125 
Q 45.015625 41.5 45.015625 49.421875 
Q 45.015625 57.28125 41.125 61.84375 
Q 37.25 66.40625 30.609375 66.40625 
Q 23.96875 66.40625 20.09375 61.84375 
Q 16.21875 57.28125 16.21875 49.421875 
Q 16.21875 41.5 20.09375 36.953125 
Q 23.96875 32.421875 30.609375 32.421875 
z
" id="DejaVuSans-39"/>
      <path d="M 50 53.078125 
L 48.296875 44.578125 
Q 44.734375 46.53125 40.765625 47.5 
Q 36.8125 48.484375 32.625 48.484375 
Q 25.53125 48.484375 21.453125 46.0625 
Q 17.390625 43.65625 17.390625 39.5 
Q 17.390625 34.671875 26.859375 32.078125 
Q 27.59375 31.890625 27.9375 31.78125 
L 30.8125 30.90625 
Q 39.796875 28.421875 42.796875 25.6875 
Q 45.796875 22.953125 45.796875 18.21875 
Q 45.796875 9.515625 38.890625 4.046875 
Q 31.984375 -1.421875 20.796875 -1.421875 
Q 16.453125 -1.421875 11.671875 -0.578125 
Q 6.890625 0.25 1.125 2 
L 2.875 11.28125 
Q 7.8125 8.734375 12.59375 7.421875 
Q 17.390625 6.109375 21.78125 6.109375 
Q 28.375 6.109375 32.5 8.9375 
Q 36.625 11.765625 36.625 16.109375 
Q 36.625 20.796875 25.78125 23.6875 
L 24.859375 23.921875 
L 21.78125 24.703125 
Q 14.9375 26.515625 11.765625 29.46875 
Q 8.59375 32.421875 8.59375 37.015625 
Q 8.59375 45.75 15.15625 50.875 
Q 21.734375 56 33.015625 56 
Q 37.453125 56 41.671875 55.265625 
Q 45.90625 54.546875 50 53.078125 
z
" id="DejaVuSans-Oblique-73"/>
      <path d="M 49.609375 33.6875 
Q 49.609375 40.875 46.484375 44.671875 
Q 43.359375 48.484375 37.5 48.484375 
Q 33.5 48.484375 29.859375 46.4375 
Q 26.21875 44.390625 23.390625 40.484375 
Q 20.609375 36.625 18.9375 31.15625 
Q 17.28125 25.6875 17.28125 20.3125 
Q 17.28125 13.484375 20.40625 9.796875 
Q 23.53125 6.109375 29.296875 6.109375 
Q 33.546875 6.109375 37.1875 8.109375 
Q 40.828125 10.109375 43.40625 13.921875 
Q 46.1875 17.921875 47.890625 23.34375 
Q 49.609375 28.765625 49.609375 33.6875 
z
M 21.78125 46.390625 
Q 25.390625 51.125 30.296875 53.5625 
Q 35.203125 56 41.21875 56 
Q 49.609375 56 54.25 50.5 
Q 58.890625 45.015625 58.890625 35.109375 
Q 58.890625 27 56 19.65625 
Q 53.125 12.3125 47.703125 6.5 
Q 44.09375 2.640625 39.546875 0.609375 
Q 35.015625 -1.421875 29.984375 -1.421875 
Q 24.171875 -1.421875 20.21875 1 
Q 16.265625 3.421875 14.3125 8.203125 
L 8.6875 -20.796875 
L -0.296875 -20.796875 
L 14.40625 54.6875 
L 23.390625 54.6875 
z
" id="DejaVuSans-Oblique-70"/>
     </defs>
     <g transform="translate(281.28 61.138875)scale(0.06 -0.06)">
      <use transform="translate(0 0.765625)" xlink:href="#DejaVuSans-Oblique-6c"/>
      <use transform="translate(27.783203 0.765625)" xlink:href="#DejaVuSans-Oblique-69"/>
      <use transform="translate(55.566406 0.765625)" xlink:href="#DejaVuSans-Oblique-6e"/>
      <use transform="translate(118.945312 0.765625)" xlink:href="#DejaVuSans-2e"/>
      <use transform="translate(202.685222 0.765625)" xlink:href="#DejaVuSans-Oblique-66"/>
      <use transform="translate(237.8903 0.765625)" xlink:href="#DejaVuSans-Oblique-69"/>
      <use transform="translate(265.673503 0.765625)" xlink:href="#DejaVuSans-Oblique-74"/>
      <use transform="translate(304.882488 0.765625)" xlink:href="#DejaVuSans-2e"/>
      <use transform="translate(388.622397 0.765625)" xlink:href="#DejaVuSans-Oblique-52"/>
      <use transform="translate(465.12159 39.046875)scale(0.7)" xlink:href="#DejaVuSans-32"/>
      <use transform="translate(531.87452 0.765625)" xlink:href="#DejaVuSans-3d"/>
      <use transform="translate(635.146004 0.765625)" xlink:href="#DejaVuSans-30"/>
      <use transform="translate(698.769051 0.765625)" xlink:href="#DejaVuSans-2e"/>
      <use transform="translate(730.55616 0.765625)" xlink:href="#DejaVuSans-39"/>
      <use transform="translate(794.179207 0.765625)" xlink:href="#DejaVuSans-39"/>
      <use transform="translate(857.802254 0.765625)" xlink:href="#DejaVuSans-39"/>
      <use transform="translate(921.425301 0.765625)" xlink:href="#DejaVuSans-39"/>
      <use transform="translate(985.048348 0.765625)" xlink:href="#DejaVuSans-36"/>
      <use transform="translate(1048.671395 0.765625)" xlink:href="#DejaVuSans-36"/>
      <use transform="translate(1144.76482 0.765625)" xlink:href="#DejaVuSans-Oblique-73"/>
      <use transform="translate(1196.86443 0.765625)" xlink:href="#DejaVuSans-Oblique-6c"/>
      <use transform="translate(1224.647633 0.765625)" xlink:href="#DejaVuSans-Oblique-6f"/>
      <use transform="translate(1285.829273 0.765625)" xlink:href="#DejaVuSans-Oblique-70"/>
      <use transform="translate(1349.305836 0.765625)" xlink:href="#DejaVuSans-Oblique-65"/>
      <use transform="translate(1430.311695 0.765625)" xlink:href="#DejaVuSans-3d"/>
      <use transform="translate(1553.065601 0.765625)" xlink:href="#DejaVuSans-2212"/>
      <use transform="translate(1656.337086 0.765625)" xlink:href="#DejaVuSans-30"/>
      <use transform="translate(1719.960133 0.765625)" xlink:href="#DejaVuSans-2e"/>
      <use transform="translate(1751.747242 0.765625)" xlink:href="#DejaVuSans-33"/>
      <use transform="translate(1815.370289 0.765625)" xlink:href="#DejaVuSans-31"/>
      <use transform="translate(1878.993336 0.765625)" xlink:href="#DejaVuSans-30"/>
      <use transform="translate(1942.616383 0.765625)" xlink:href="#DejaVuSans-31"/>
      <use transform="translate(2006.23943 0.765625)" xlink:href="#DejaVuSans-39"/>
      <use transform="translate(2069.862476 0.765625)" xlink:href="#DejaVuSans-33"/>
     </g>
    </g>
   </g>
  </g>
  <g id="text_19">
   <!-- Errors plot -->
   <defs>
    <path d="M 44.28125 53.078125 
L 44.28125 44.578125 
Q 40.484375 46.53125 36.375 47.5 
Q 32.28125 48.484375 27.875 48.484375 
Q 21.1875 48.484375 17.84375 46.4375 
Q 14.5 44.390625 14.5 40.28125 
Q 14.5 37.15625 16.890625 35.375 
Q 19.28125 33.59375 26.515625 31.984375 
L 29.59375 31.296875 
Q 39.15625 29.25 43.1875 25.515625 
Q 47.21875 21.78125 47.21875 15.09375 
Q 47.21875 7.46875 41.1875 3.015625 
Q 35.15625 -1.421875 24.609375 -1.421875 
Q 20.21875 -1.421875 15.453125 -0.5625 
Q 10.6875 0.296875 5.421875 2 
L 5.421875 11.28125 
Q 10.40625 8.6875 15.234375 7.390625 
Q 20.0625 6.109375 24.8125 6.109375 
Q 31.15625 6.109375 34.5625 8.28125 
Q 37.984375 10.453125 37.984375 14.40625 
Q 37.984375 18.0625 35.515625 20.015625 
Q 33.0625 21.96875 24.703125 23.78125 
L 21.578125 24.515625 
Q 13.234375 26.265625 9.515625 29.90625 
Q 5.8125 33.546875 5.8125 39.890625 
Q 5.8125 47.609375 11.28125 51.796875 
Q 16.75 56 26.8125 56 
Q 31.78125 56 36.171875 55.265625 
Q 40.578125 54.546875 44.28125 53.078125 
z
" id="DejaVuSans-73"/>
    <path id="DejaVuSans-20"/>
   </defs>
   <g transform="translate(199.00875 16.030125)scale(0.12 -0.12)">
    <use xlink:href="#DejaVuSans-45"/>
    <use x="63.183594" xlink:href="#DejaVuSans-72"/>
    <use x="104.28125" xlink:href="#DejaVuSans-72"/>
    <use x="145.363281" xlink:href="#DejaVuSans-6f"/>
    <use x="206.544922" xlink:href="#DejaVuSans-72"/>
    <use x="247.658203" xlink:href="#DejaVuSans-73"/>
    <use x="299.757812" xlink:href="#DejaVuSans-20"/>
    <use x="331.544922" xlink:href="#DejaVuSans-70"/>
    <use x="395.021484" xlink:href="#DejaVuSans-6c"/>
    <use x="422.804688" xlink:href="#DejaVuSans-6f"/>
    <use x="483.986328" xlink:href="#DejaVuSans-74"/>
   </g>
  </g>
 </g>
 <defs>
  <clipPath id="p88b5f52dc6">
   <rect height="266.112" width="357.12" x="57.6" y="41.472"/>
  </clipPath>
 </defs>
</svg>
